<svg xmlns="http://www.w3.org/2000/svg" width="38.288" height="26.89" viewBox="0 0 38.288 26.89">
  <g id="iconfinder_Social_Icons-07_2024248" transform="translate(-2 -1.56)">
    <path id="Path_38" data-name="Path 38" d="M20.652,27.547H5.23V28.83c0,.707.844,1.28,1.881,1.283h31.6c1.039,0,1.881-.574,1.881-1.283V7.283c0-.708-.842-1.283-1.881-1.283H36.827V26.239c0,.723-.859,1.308-1.918,1.308H28.89" transform="translate(-0.8 -2.162)" fill="#aebad3" stroke="#aebad3" stroke-miterlimit="10" stroke-width="1"/>
    <path id="Path_39" data-name="Path 39" d="M4.257,1.56H34.522c1.217.014,2.2.683,2.219,1.513v20.8c0,.85-1.01,1.539-2.257,1.539H26.021v-9.45h4.431l.677-3.53H26.021V10.184A1.563,1.563,0,0,1,26.54,8.9a3.416,3.416,0,0,1,2.024-.441H31.3V5.326c-1.32-.11-2.65-.158-3.98-.144A8.558,8.558,0,0,0,22.493,6.4,3.882,3.882,0,0,0,20.68,9.84v2.6H16.241v3.53H20.68v9.45H4.257C3.01,25.416,2,24.727,2,23.877V3.073c.021-.84,1.025-1.514,2.257-1.513Z" transform="translate(0 0)" fill="#3b5995"/>
    <path id="Path_40" data-name="Path 40" d="M30.692,28.845V19.389h4.431l.677-3.53H30.692V13.613a1.563,1.563,0,0,1,.519-1.288,3.417,3.417,0,0,1,2.031-.441h2.738V8.749c-1.32-.11-2.65-.158-3.98-.144a8.551,8.551,0,0,0-4.83,1.226,3.882,3.882,0,0,0-1.813,3.437v2.6H20.92v3.53h4.439v9.45" transform="translate(-4.686 -3.429)" fill="#fff"/>
  </g>
</svg>
