<svg xmlns="http://www.w3.org/2000/svg" width="46" height="41" viewBox="0 0 46 41">
  <g id="iconfinder_twitter_circle_294709" transform="translate(-0.273 -0.111)">
    <ellipse id="Ellipse_2" data-name="Ellipse 2" cx="23" cy="20.5" rx="23" ry="20.5" transform="translate(0.273 0.111)" fill="#1cb7eb"/>
    <g id="Group_13" data-name="Group 13" transform="translate(13.699 14.102)">
      <g id="Group_12" data-name="Group 12">
        <path id="Path_45" data-name="Path 45" d="M28.937,14.285a6.516,6.516,0,0,1-2.089.514,3.322,3.322,0,0,0,1.6-1.77,9.112,9.112,0,0,1-2.368.8A3.907,3.907,0,0,0,23.436,12.8a3.486,3.486,0,0,0-3.691,3.255,2.685,2.685,0,0,0,.07.742,10.948,10.948,0,0,1-7.591-3.369,2.667,2.667,0,0,0-.487,1.656,3.094,3.094,0,0,0,1.6,2.684,3.911,3.911,0,0,1-1.671-.4v.057a3.443,3.443,0,0,0,2.925,3.2,4.957,4.957,0,0,1-.975.114,2.871,2.871,0,0,1-.7-.057,3.555,3.555,0,0,0,3.412,2.227,8.1,8.1,0,0,1-4.527,1.37,5.206,5.206,0,0,1-.905-.057A11.435,11.435,0,0,0,16.541,25.7c6.755,0,10.446-4.911,10.446-9.193v-.4A7.448,7.448,0,0,0,28.937,14.285Z" transform="translate(-10.9 -12.8)" fill="#fff"/>
      </g>
    </g>
  </g>
</svg>
