<svg id="iconfinder_General_Office_23_3592861" xmlns="http://www.w3.org/2000/svg" width="45.739" height="41.903" viewBox="0 0 45.739 41.903">
  <g id="Group_9" data-name="Group 9" transform="translate(0)">
    <path id="Path_30" data-name="Path 30" d="M39.915,33.19l6.536-12.329H2.606L9.144,33.19Z" transform="translate(-1.657 -13.159)" fill="rgba(239,245,240,0.99)"/>
    <rect id="Rectangle_13" data-name="Rectangle 13" width="12.438" height="4.842" transform="translate(16.653)" fill="rgba(239,245,240,0.99)"/>
    <path id="Path_31" data-name="Path 31" d="M41.137,39.392a1.428,1.428,0,0,1-1.263.76H30.35a6.873,6.873,0,0,1-13.446,0H7.382a1.429,1.429,0,0,1-1.263-.76L.756,29.278V59.162H43.362a3.137,3.137,0,0,0,3.133-3.134V29.283Z" transform="translate(-0.756 -17.259)" fill="rgba(239,245,240,0.99)"/>
    <path id="Path_32" data-name="Path 32" d="M41.789,53.067a4.021,4.021,0,0,0,3.751-2.586h-7.5A4.024,4.024,0,0,0,41.789,53.067Z" transform="translate(-18.917 -27.588)" fill="rgba(239,245,240,0.99)"/>
  </g>
</svg>
