<svg xmlns="http://www.w3.org/2000/svg" width="92.655" height="25.49" viewBox="0 0 92.655 25.49">
  <g id="Logo" transform="translate(-143 -32.51)">
    <text id="AswinDev19" transform="translate(143 55)" fill="rgba(0,0,0,0.99)" font-size="12" font-family="MicrosoftYaHei-Bold, Microsoft YaHei" font-weight="700"><tspan x="0" y="0">AswinDev19</tspan></text>
    <g id="Path_2" data-name="Path 2" transform="matrix(0.588, 0.809, -0.809, 0.588, 229.111, 32.51)" fill="#26bf36">
      <path d="M 5.456901073455811 12.59603786468506 C 5.327260971069336 12.59603786468506 5.187891006469727 12.58085823059082 5.042670726776123 12.55092811584473 C 3.980280876159668 12.33197784423828 2.902100801467896 11.38784790039063 2.688270807266235 10.48924827575684 L 0.5346208810806274 1.438928008079529 C 0.4878109097480774 1.24223792552948 0.4651609063148499 0.9658079743385315 0.6230708956718445 0.765917956829071 C 0.7585409283638 0.5944379568099976 1.011920928955078 0.4999979734420776 1.336560845375061 0.4999979734420776 C 1.466200947761536 0.4999979734420776 1.605570912361145 0.5151779651641846 1.750790953636169 0.5451079607009888 C 2.813180923461914 0.764057993888855 3.891360998153687 1.708187937736511 4.105190753936768 2.606787919998169 L 6.258841037750244 11.65710830688477 C 6.30565071105957 11.85379791259766 6.328300952911377 12.13022804260254 6.170391082763672 12.33011817932129 C 6.034920692443848 12.5015983581543 5.781540870666504 12.59603786468506 5.456901073455811 12.59603786468506 Z" stroke="none"/>
      <path d="M 1.33656120300293 0.9999980926513672 C 1.139201164245605 0.9999980926513672 1.034981250762939 1.051108360290527 1.015430927276611 1.075858116149902 C 1.006781101226807 1.086797714233398 0.9824013710021973 1.16083812713623 1.021030902862549 1.323178291320801 L 3.174681186676025 10.37349796295166 C 3.326111078262329 11.00984764099121 4.200311183929443 11.86681747436523 5.143610954284668 12.06122779846191 C 5.255681037902832 12.08432769775391 5.361091136932373 12.09603786468506 5.456901073455811 12.09603786468506 C 5.654261112213135 12.09603786468506 5.758481025695801 12.0449275970459 5.778031349182129 12.02017784118652 C 5.786681175231934 12.00923824310303 5.811060905456543 11.9351978302002 5.772431373596191 11.77285766601563 L 3.618781089782715 2.722537994384766 C 3.467351198196411 2.086188316345215 2.593151092529297 1.229217529296875 1.649851322174072 1.034808158874512 C 1.537781238555908 1.01170825958252 1.432371139526367 0.9999980926513672 1.33656120300293 0.9999980926513672 M 1.33656120300293 0 C 1.497693538665771 0 1.669929981231689 0.01793193817138672 1.851721286773682 0.05539798736572266 C 3.106351137161255 0.3139677047729492 4.333041191101074 1.404447555541992 4.591610908508301 2.49103832244873 L 6.745261192321777 11.54135799407959 C 6.966364860534668 12.47051239013672 6.40781307220459 13.09603595733643 5.456901073455811 13.09603595733643 C 5.295768737792969 13.09603595733643 5.123532295227051 13.07810401916504 4.941740989685059 13.0406379699707 C 3.687111139297485 12.78206825256348 2.460421085357666 11.69158744812012 2.201851367950439 10.6049976348877 L 0.04820108413696289 1.554677963256836 C -0.1729025840759277 0.625523567199707 0.3856492042541504 0 1.33656120300293 0 Z" stroke="none" fill="#707070"/>
    </g>
    <g id="Path_1" data-name="Path 1" transform="matrix(0.588, 0.809, -0.809, 0.588, 231.662, 38.829)" fill="#263bbf">
      <path d="M 5.456901073455811 12.59603786468506 C 5.327260971069336 12.59603786468506 5.187891006469727 12.58085823059082 5.042670726776123 12.55092811584473 C 3.980280876159668 12.33197784423828 2.902100801467896 11.38784790039063 2.688270807266235 10.48924827575684 L 0.5346208810806274 1.438928008079529 C 0.4878109097480774 1.24223792552948 0.4651609063148499 0.9658079743385315 0.6230708956718445 0.765917956829071 C 0.7585409283638 0.5944379568099976 1.011920928955078 0.4999979734420776 1.336560845375061 0.4999979734420776 C 1.466200947761536 0.4999979734420776 1.605570912361145 0.5151779651641846 1.750790953636169 0.5451079607009888 C 2.813180923461914 0.764057993888855 3.891360998153687 1.708187937736511 4.105190753936768 2.606787919998169 L 6.258841037750244 11.65710830688477 C 6.30565071105957 11.85379791259766 6.328300952911377 12.13022804260254 6.170391082763672 12.33011817932129 C 6.034920692443848 12.5015983581543 5.781540870666504 12.59603786468506 5.456901073455811 12.59603786468506 Z" stroke="none"/>
      <path d="M 1.33656120300293 0.9999980926513672 C 1.139201164245605 0.9999980926513672 1.034981250762939 1.051108360290527 1.015430927276611 1.075858116149902 C 1.006781101226807 1.086797714233398 0.9824013710021973 1.16083812713623 1.021030902862549 1.323178291320801 L 3.174681186676025 10.37349796295166 C 3.326111078262329 11.00984764099121 4.200311183929443 11.86681747436523 5.143610954284668 12.06122779846191 C 5.255681037902832 12.08432769775391 5.361091136932373 12.09603786468506 5.456901073455811 12.09603786468506 C 5.654261112213135 12.09603786468506 5.758481025695801 12.0449275970459 5.778031349182129 12.02017784118652 C 5.786681175231934 12.00923824310303 5.811060905456543 11.9351978302002 5.772431373596191 11.77285766601563 L 3.618781089782715 2.722537994384766 C 3.467351198196411 2.086188316345215 2.593151092529297 1.229217529296875 1.649851322174072 1.034808158874512 C 1.537781238555908 1.01170825958252 1.432371139526367 0.9999980926513672 1.33656120300293 0.9999980926513672 M 1.33656120300293 0 C 1.497693538665771 0 1.669929981231689 0.01793193817138672 1.851721286773682 0.05539798736572266 C 3.106351137161255 0.3139677047729492 4.333041191101074 1.404447555541992 4.591610908508301 2.49103832244873 L 6.745261192321777 11.54135799407959 C 6.966364860534668 12.47051239013672 6.40781307220459 13.09603595733643 5.456901073455811 13.09603595733643 C 5.295768737792969 13.09603595733643 5.123532295227051 13.07810401916504 4.941740989685059 13.0406379699707 C 3.687111139297485 12.78206825256348 2.460421085357666 11.69158744812012 2.201851367950439 10.6049976348877 L 0.04820108413696289 1.554677963256836 C -0.1729025840759277 0.625523567199707 0.3856492042541504 0 1.33656120300293 0 Z" stroke="none" fill="#707070"/>
    </g>
  </g>
</svg>
