<svg id="iconfinder_General_Office_41_3592851" xmlns="http://www.w3.org/2000/svg" width="46.673" height="50.23" viewBox="0 0 46.673 50.23">
  <g id="Group_8" data-name="Group 8" transform="translate(0)">
    <path id="Path_22" data-name="Path 22" d="M48.731,20.313H4.857a1.4,1.4,0,0,1-1.4-1.4v-9.8a1.4,1.4,0,0,1,1.4-1.4H48.731a1.4,1.4,0,0,1,1.4,1.4v9.8A1.4,1.4,0,0,1,48.731,20.313Zm-42.474-2.8H47.333v-7H6.257Z" transform="translate(-3.458 -3.63)" fill="rgba(239,245,240,0.99)"/>
    <g id="Group_7" data-name="Group 7" transform="translate(0.001 13.885)">
      <g id="Group_1" data-name="Group 1" transform="translate(33.419 22.194)">
        <rect id="Rectangle_7" data-name="Rectangle 7" width="3.818" height="3.819" transform="translate(0.466 0.466)" fill="rgba(239,245,240,0.99)"/>
        <path id="Path_23" data-name="Path 23" d="M68.024,69.732h-4.75V64.98h4.75ZM64.207,68.8h2.884V65.913H64.207Z" transform="translate(-63.274 -64.98)" fill="rgba(239,245,240,0.99)"/>
      </g>
      <g id="Group_2" data-name="Group 2" transform="translate(20.961 9.081)">
        <rect id="Rectangle_8" data-name="Rectangle 8" width="3.819" height="3.82" transform="translate(0.467 0.466)" fill="rgba(239,245,240,0.99)"/>
        <path id="Path_24" data-name="Path 24" d="M45.728,46.262H40.976V41.509h4.752Zm-3.819-.933H44.8V42.442H41.909Z" transform="translate(-40.976 -41.509)" fill="rgba(239,245,240,0.99)"/>
      </g>
      <g id="Group_3" data-name="Group 3" transform="translate(8.506 22.194)">
        <rect id="Rectangle_9" data-name="Rectangle 9" width="3.816" height="3.819" transform="translate(0.467 0.466)" fill="rgba(239,245,240,0.99)"/>
        <path id="Path_25" data-name="Path 25" d="M23.432,69.732H18.683V64.98h4.749ZM19.616,68.8H22.5V65.913H19.616Z" transform="translate(-18.683 -64.98)" fill="rgba(239,245,240,0.99)"/>
      </g>
      <g id="Group_6" data-name="Group 6">
        <g id="Group_5" data-name="Group 5">
          <rect id="Rectangle_10" data-name="Rectangle 10" width="4.749" height="4.753" transform="translate(8.506 9.081)" fill="rgba(239,245,240,0.99)"/>
          <g id="Group_4" data-name="Group 4">
            <rect id="Rectangle_11" data-name="Rectangle 11" width="4.752" height="4.752" transform="translate(20.961 22.194)" fill="rgba(239,245,240,0.99)"/>
            <path id="Path_26" data-name="Path 26" d="M48.732,25.256H4.859a1.4,1.4,0,0,0-1.4,1.4V60.2a1.4,1.4,0,0,0,1.4,1.4H44.318a5.82,5.82,0,0,0,5.814-5.814V26.656A1.4,1.4,0,0,0,48.732,25.256ZM19.046,53.134a1.4,1.4,0,0,1-1.4,1.4H11.032a1.4,1.4,0,0,1-1.4-1.4V46.517a1.4,1.4,0,0,1,1.4-1.4h6.616a1.4,1.4,0,0,1,1.4,1.4v6.617Zm0-13.112a1.4,1.4,0,0,1-1.4,1.4H11.032a1.4,1.4,0,0,1-1.4-1.4V33.4a1.4,1.4,0,0,1,1.4-1.4h6.616a1.4,1.4,0,0,1,1.4,1.4v6.618ZM31.5,53.134a1.4,1.4,0,0,1-1.4,1.4H23.488a1.4,1.4,0,0,1-1.4-1.4V46.517a1.4,1.4,0,0,1,1.4-1.4h6.617a1.4,1.4,0,0,1,1.4,1.4v6.617Zm0-13.112a1.4,1.4,0,0,1-1.4,1.4H23.488a1.4,1.4,0,0,1-1.4-1.4V33.4a1.4,1.4,0,0,1,1.4-1.4h6.617a1.4,1.4,0,0,1,1.4,1.4v6.618ZM43.961,53.134a1.4,1.4,0,0,1-1.4,1.4H35.945a1.4,1.4,0,0,1-1.4-1.4V46.517a1.4,1.4,0,0,1,1.4-1.4h6.617a1.4,1.4,0,0,1,1.4,1.4v6.617Zm0-13.112a1.4,1.4,0,0,1-1.4,1.4H35.945a1.4,1.4,0,0,1-1.4-1.4V33.4a1.4,1.4,0,0,1,1.4-1.4h6.617a1.4,1.4,0,0,1,1.4,1.4v6.618Z" transform="translate(-3.459 -25.256)" fill="rgba(239,245,240,0.99)"/>
          </g>
        </g>
        <rect id="Rectangle_12" data-name="Rectangle 12" width="4.75" height="4.753" transform="translate(33.419 9.081)" fill="rgba(239,245,240,0.99)"/>
      </g>
    </g>
    <path id="Path_27" data-name="Path 27" d="M20.661,11.508a1.4,1.4,0,0,1-1.4-1.4V1.8a1.4,1.4,0,1,1,2.8,0v8.306A1.4,1.4,0,0,1,20.661,11.508Z" transform="translate(-10.432 -0.403)" fill="rgba(239,245,240,0.99)"/>
    <path id="Path_28" data-name="Path 28" d="M44.122,11.508a1.4,1.4,0,0,1-1.4-1.4V1.8a1.4,1.4,0,1,1,2.8,0v8.306A1.4,1.4,0,0,1,44.122,11.508Z" transform="translate(-20.785 -0.403)" fill="rgba(239,245,240,0.99)"/>
    <path id="Path_29" data-name="Path 29" d="M67.586,11.508a1.4,1.4,0,0,1-1.4-1.4V1.8a1.4,1.4,0,1,1,2.8,0v8.306A1.4,1.4,0,0,1,67.586,11.508Z" transform="translate(-31.14 -0.403)" fill="rgba(239,245,240,0.99)"/>
  </g>
</svg>
